<svg preserveAspectRatio="none" overflow="visible" style="display: block;" width="32" height="32" viewBox="0 0 32 32" fill="none" xmlns="http://www.w3.org/2000/svg">
<g id="Icon" clip-path="url(#clip0_0_6)">
<g id="Transitional" clip-path="url(#clip1_0_6)">
<g id="Vector">
<path d="M28.8572 8.89216C30.7429 8.89216 32.2858 10.435 32.2858 12.3207V31.1433C32.2858 31.5776 32.034 31.978 31.634 32.1723C31.4741 32.2521 31.3027 32.2861 31.1429 32.2861C30.8915 32.2861 30.6399 32.2064 30.4342 32.035L23.509 26.4915H12.3315C11.703 26.4915 11.1887 25.9772 11.1887 25.3486C11.1889 24.7202 11.7031 24.2058 12.3315 24.2058H23.9085C24.1714 24.2058 24.423 24.298 24.6172 24.458L30.0001 28.766V12.3207C30.0001 11.6922 29.4858 11.1779 28.8572 11.1779H27.7143C27.0859 11.1779 26.5717 10.6634 26.5715 10.035C26.5715 9.40646 27.0858 8.89218 27.7143 8.89216H28.8572Z" fill="#141414"/>
<path d="M12.0916 14.6857C12.8343 14.6858 13.4632 15.3151 13.4632 16.035C13.463 16.7548 12.8342 17.4065 12.0916 17.4067C11.3488 17.4067 10.7424 16.7777 10.7422 16.035C10.7422 15.315 11.3487 14.6857 12.0916 14.6857Z" fill="#141414"/>
<path d="M12.4454 4.85756C14.4568 4.85756 15.8628 6.16095 15.8628 7.9781C15.8624 10.4347 13.2229 10.9605 13.1541 13.1087H11.028C10.7311 10.4004 13.4398 9.71411 13.4398 8.30845C13.4395 7.49735 12.8795 7.006 11.9655 7.006C11.1769 7.00605 10.2856 7.33766 9.29135 8.04618V5.81738C10.4341 5.10891 11.4055 4.8576 12.4454 4.85756Z" fill="#141414"/>
<path fill-rule="evenodd" clip-rule="evenodd" d="M20.8572 0.286133C22.7429 0.286133 24.2858 1.82899 24.2858 3.7147V18.5718C24.2858 20.4576 22.7429 22.0004 20.8572 22.0004H8.6976L2.15965 27.4513C1.95394 27.6227 1.69148 27.7147 1.42862 27.7147C1.26867 27.7147 1.09725 27.6806 0.948713 27.612C0.548713 27.4292 0.285767 27.0176 0.285767 26.5718V3.7147C0.285767 1.82899 1.82862 0.286133 3.71434 0.286133H20.8572ZM3.71434 2.57185C3.08577 2.57185 2.57148 3.08613 2.57148 3.7147V24.1377L7.55474 19.9893C7.76044 19.8179 8.02295 19.7259 8.28577 19.7259H20.8572C21.4858 19.7259 22.0001 19.2116 22.0001 18.583V3.7147C22.0001 3.08613 21.4858 2.57185 20.8572 2.57185H3.71434Z" fill="#141414"/>
</g>
</g>
</g>
<defs>
<clipPath id="clip0_0_6">
<rect width="32" height="32" fill="white"/>
</clipPath>
<clipPath id="clip1_0_6">
<rect width="32" height="32" fill="white"/>
</clipPath>
</defs>
</svg>
