<svg preserveAspectRatio="none" overflow="visible" style="display: block;" width="32" height="32" viewBox="0 0 32 32" fill="none" xmlns="http://www.w3.org/2000/svg">
<g id="Icon" clip-path="url(#clip0_0_4)">
<g id="Transitional">
<g id="Vector">
<path d="M10.571 11.8623C10.7509 11.8425 10.9006 11.9727 10.9206 12.1426H10.9109C11.2308 15.3325 11.3708 18.2029 10.9109 21.3828C10.9106 21.5526 10.7702 21.6924 10.6003 21.6924C10.4306 21.6922 10.291 21.5525 10.2907 21.3828C9.85075 18.2329 10.0008 15.2925 10.2907 12.1426C10.3107 11.9926 10.421 11.8823 10.571 11.8623Z" fill="#141414"/>
<path d="M8.67062 12.7227C8.85046 12.7227 8.99075 12.8622 8.99094 13.042C9.37094 15.812 9.3702 18.6226 8.9802 21.3926C8.97009 21.5423 8.85062 21.6517 8.7009 21.6719C8.53096 21.6919 8.37041 21.5625 8.35031 21.3926C7.99031 18.6226 7.99031 15.812 8.35031 13.042C8.3505 12.8622 8.49074 12.7227 8.67062 12.7227Z" fill="#141414"/>
<path d="M19.2409 9.14258C20.3709 9.14261 21.4809 9.44249 22.4509 10.0225C23.9808 10.9224 25.0611 12.4222 25.4411 14.1621C25.771 14.0722 26.111 14.0225 26.4509 14.0225C28.5608 14.0125 30.2807 15.7123 30.2907 17.8223V17.9619H30.281C30.161 20.0618 28.411 21.6919 26.3113 21.6621H16.7712C16.3312 21.6621 15.9812 21.3023 15.9812 20.8623V10.5928C15.9712 10.2328 16.1805 9.90198 16.5105 9.75195C16.5105 9.75195 17.3909 9.14258 19.2409 9.14258Z" fill="#141414"/>
<path d="M6.73117 14.8027C6.91085 14.803 7.05037 14.9424 7.05051 15.1221C7.54051 17.2821 7.32097 19.1924 7.03098 21.4023C7.01099 21.5322 6.91084 21.6322 6.78098 21.6523C6.61098 21.6823 6.46039 21.5623 6.43039 21.4023C6.17039 19.2324 5.95086 17.2721 6.41086 15.1221C6.411 14.9422 6.55126 14.8027 6.73117 14.8027Z" fill="#141414"/>
<path d="M12.5007 12.1523C12.6807 12.1323 12.8411 12.2624 12.8611 12.4424H12.8503C13.2403 15.4124 13.2403 18.4128 12.8503 21.3828C12.8301 21.5225 12.7206 21.6323 12.5808 21.6523C12.4009 21.6823 12.2409 21.5626 12.2107 21.3828C11.8607 18.4128 11.8607 15.4124 12.2107 12.4424C12.2307 12.2924 12.3507 12.1723 12.5007 12.1523Z" fill="#141414"/>
<path d="M14.5212 10.9023C14.6909 10.9226 14.8106 11.0724 14.7907 11.2422C15.0807 14.7221 15.2907 17.9022 14.7907 21.3721C14.7808 21.5119 14.661 21.6224 14.5212 21.6426C14.3512 21.6626 14.2004 21.5421 14.1804 21.3721C13.7204 17.9322 13.9204 14.6921 14.1804 11.2422V11.1719C14.2006 11.0021 14.3513 10.8824 14.5212 10.9023Z" fill="#141414"/>
<path d="M4.76047 14.5127C4.94047 14.4927 5.10082 14.6227 5.12082 14.8027C5.57069 17.0224 5.421 18.8924 5.11105 21.1221C5.07105 21.4521 4.5102 21.4521 4.4802 21.1221C4.20024 18.9323 4.06054 17.0025 4.47043 14.8027C4.48043 14.6528 4.61053 14.5328 4.76047 14.5127Z" fill="#141414"/>
<path d="M2.81125 15.582C2.99098 15.5623 3.1505 15.6924 3.17062 15.8721H3.18039C3.65036 17.342 3.49081 18.5321 3.16086 20.042C3.14088 20.1818 3.03112 20.2923 2.89133 20.3125C2.72133 20.3325 2.57051 20.212 2.55051 20.042C2.26057 18.5722 2.15124 17.3419 2.52121 15.8721C2.53136 15.7222 2.66135 15.602 2.81125 15.582Z" fill="#141414"/>
</g>
</g>
</g>
<defs>
<clipPath id="clip0_0_4">
<rect width="32" height="32" fill="white"/>
</clipPath>
</defs>
</svg>
