<svg width="12" height="12" viewBox="0 0 12 12" fill="none" xmlns="http://www.w3.org/2000/svg">
<mask id="mask0_7921_5761" style="mask-type:alpha" maskUnits="userSpaceOnUse" x="0" y="0" width="12" height="12">
<g clip-path="url(#clip0_7921_5761)">
<path d="M1.60731 4.39307L1.60731 4.38846L1.60773 4.39056L1.60731 4.39307Z" fill="#141414"/>
<path d="M10.0498 4.0888C10.2169 4.25594 10.217 4.5256 10.0498 4.69273L6.19269 8.54987C6.02555 8.71702 5.75548 8.71702 5.58834 8.54987L1.73119 4.69273C1.64611 4.60755 1.60818 4.5012 1.60773 4.39056C1.60832 4.28005 1.65046 4.17388 1.73119 4.0888C1.89834 3.92165 2.1684 3.92165 2.33555 4.0888L5.88842 7.64125L9.44548 4.0888C9.61262 3.92165 9.88269 3.92165 10.0498 4.0888Z" fill="#141414"/>
</g>
</mask>
<g mask="url(#mask0_7921_5761)">
<path d="M12 5.24537e-07L12 12L0 12L5.24537e-07 0L12 5.24537e-07Z" fill="#141414"/>
</g>
<defs>
<clipPath id="clip0_7921_5761">
<rect width="12" height="12" fill="white" transform="translate(12) rotate(90)"/>
</clipPath>
</defs>
</svg>
